<svg xmlns="http://www.w3.org/2000/svg" version="1.1" xmlns:xlink="http://www.w3.org/1999/xlink" xmlns:svgjs="http://svgjs.com/svgjs" width="3026" height="3552"><svg width="3026" height="3552" viewBox="0 0 3026 3552" fill="none" xmlns="http://www.w3.org/2000/svg">
<line x1="597.5" y1="2.68825e-06" x2="597.5" y2="3545" stroke="black" stroke-width="123"></line>
<line x1="1971" y1="61.5" x2="536" y2="61.5" stroke="black" stroke-width="123"></line>
<line x1="1909.5" y1="800" x2="1909.5" y2="-2.68825e-06" stroke="black" stroke-width="123"></line>
<line x1="3026" y1="3518.5" y2="3518.5" stroke="black" stroke-width="67"></line>
<circle cx="2452" cy="1516" r="357" stroke="black" stroke-width="50"></circle>
<line x1="2442.06" y1="2698.19" x2="2665.58" y2="3488.18" stroke="black" stroke-width="50"></line>
<line x1="2437.23" y1="2219.06" x2="1952.38" y2="1677.68" stroke="black" stroke-width="50"></line>
<line x1="2437.71" y1="2219.79" x2="2925.72" y2="1695.96" stroke="black" stroke-width="50"></line>
<line x1="2443" y1="1897" x2="2443" y2="2718" stroke="black" stroke-width="50"></line>
<line x1="2442.64" y1="2711.47" x2="2230.15" y2="3504.5" stroke="black" stroke-width="50"></line>
<path d="M2560 1669C2529.58 1708.24 2445.2 1763.18 2351 1669" stroke="black" stroke-width="27"></path>
<path d="M2359 1673.5L2549.5 1673.5" stroke="black" stroke-width="27"></path>
<ellipse cx="2379.5" cy="1428" rx="43.5" ry="44" fill="black"></ellipse>
<ellipse cx="2531.5" cy="1428" rx="43.5" ry="44" fill="black"></ellipse>
</svg><style>@media (prefers-color-scheme: light) { :root { filter: none; } }
</style></svg>