<svg width="3026" height="3552" viewBox="0 0 3026 3552" fill="none" xmlns="http://www.w3.org/2000/svg">
<line x1="597.5" y1="2.68825e-06" x2="597.5" y2="3545" stroke="black" stroke-width="123"/>
<line x1="1971" y1="61.5" x2="536" y2="61.5" stroke="black" stroke-width="123"/>
<line x1="1909.5" y1="800" x2="1909.5" y2="-2.68825e-06" stroke="black" stroke-width="123"/>
<line x1="3026" y1="3518.5" y2="3518.5" stroke="black" stroke-width="67"/>
<circle cx="1919" cy="1134" r="357" stroke="black" stroke-width="50"/>
<line x1="1911.65" y1="2331.51" x2="2322.15" y2="3042.52" stroke="black" stroke-width="50"/>
<line x1="1909.64" y1="1687.47" x2="1697.15" y2="2480.5" stroke="black" stroke-width="50"/>
<line x1="1913.08" y1="1691.4" x2="2188.08" y2="2352.4" stroke="black" stroke-width="50"/>
<line x1="1910" y1="1515" x2="1910" y2="2336" stroke="black" stroke-width="50"/>
<line x1="1909.64" y1="2329.47" x2="1697.15" y2="3122.5" stroke="black" stroke-width="50"/>
<path d="M1818 1331C1848.42 1291.76 1932.8 1236.82 2027 1331" stroke="black" stroke-width="27"/>
<line x1="1871.3" y1="1009.3" x2="1775.3" y2="1105.3" stroke="black" stroke-width="15"/>
<line x1="1775.3" y1="1004.49" x2="1871.3" y2="1100.49" stroke="black" stroke-width="15"/>
<line x1="1965.7" y1="1106.49" x2="2061.7" y2="1010.49" stroke="black" stroke-width="15"/>
<line x1="2061.7" y1="1111.3" x2="1965.7" y2="1015.3" stroke="black" stroke-width="15"/>
</svg>
